<svg xmlns="http://www.w3.org/2000/svg" viewBox="0 0 44 44" width="44" height="44">
  <!-- KKOTIUM logo: two smiling flowers — simplified for small size display -->

  <!-- LEFT FLOWER (daisy) -->
  <!-- 6 petals -->
  <ellipse cx="13" cy="7"  rx="3.2" ry="4.5" fill="white" transform="rotate(0  13 7)"/>
  <ellipse cx="18" cy="8"  rx="3.2" ry="4.5" fill="white" transform="rotate(30 18 8)"/>
  <ellipse cx="21" cy="13" rx="4.5" ry="3.2" fill="white" transform="rotate(60 21 13)"/>
  <ellipse cx="18" cy="19" rx="3.2" ry="4.5" fill="white" transform="rotate(0  18 19)"/>
  <ellipse cx="12" cy="19" rx="3.2" ry="4.5" fill="white" transform="rotate(0  12 19)"/>
  <ellipse cx="8"  cy="13" rx="4.5" ry="3.2" fill="white" transform="rotate(0  8  13)"/>
  <!-- Center -->
  <circle cx="15" cy="13" r="6" fill="white"/>
  <!-- Face -->
  <circle cx="13" cy="12" r="0.9" fill="#e62310"/>
  <circle cx="17" cy="12" r="0.9" fill="#e62310"/>
  <path d="M12.5 15 Q15 17.5 17.5 15" stroke="#e62310" stroke-width="1.1" fill="none" stroke-linecap="round"/>

  <!-- RIGHT FLOWER (tulip) -->
  <path d="M29 5 C26 5 23 8 23 13 C23 18 26 20 29 20 C32 20 35 18 35 13 C35 8 32 5 29 5Z" fill="white"/>
  <path d="M27 5.5 C24.5 4 22 7 22 12 C22 16 24 19 27 20" fill="white"/>
  <path d="M31 5.5 C33.5 4 36 7 36 12 C36 16 34 19 31 20" fill="white"/>
  <!-- Face -->
  <circle cx="27" cy="12" r="0.9" fill="#e62310"/>
  <circle cx="31" cy="12" r="0.9" fill="#e62310"/>
  <path d="M26.5 15 Q29 17.5 31.5 15" stroke="#e62310" stroke-width="1.1" fill="none" stroke-linecap="round"/>

  <!-- STEMS -->
  <path d="M15 19 C14 23 16 26 14 30 C13 33 13 36 12 38" stroke="white" stroke-width="2.2" fill="none" stroke-linecap="round"/>
  <path d="M29 20 C30 24 28 27 30 31 C31 34 31 36 32 38" stroke="white" stroke-width="2.2" fill="none" stroke-linecap="round"/>

  <!-- Connecting vine -->
  <path d="M14 28 C18 24 26 26 30 28" stroke="white" stroke-width="2" fill="none" stroke-linecap="round"/>

  <!-- Leaves -->
  <path d="M13 27 C9 25 7 29 10 32 C11 30 12 29 13 27Z" fill="white"/>
  <path d="M31 29 C35 27 37 31 34 34 C33 32 32 31 31 29Z" fill="white"/>

  <!-- Ground squiggle -->
  <path d="M10 39 C15 37 22 40 29 38 C33 37 35 39 36 40" stroke="white" stroke-width="2" fill="none" stroke-linecap="round"/>
</svg>
