<svg xmlns="http://www.w3.org/2000/svg" viewBox="0 0 100 100" width="100" height="100">
  <!-- Tulip flower symbol — KKOTIUM brand -->
  <!-- Stem -->
  <line x1="50" y1="72" x2="50" y2="90" stroke="white" stroke-width="5" stroke-linecap="round"/>
  <!-- Left leaf -->
  <path d="M50 82 Q38 74 36 62 Q44 66 50 76" fill="white" opacity="0.85"/>
  <!-- Right leaf -->
  <path d="M50 80 Q62 72 64 60 Q56 64 50 74" fill="white" opacity="0.85"/>
  <!-- Tulip petals -->
  <!-- Center petal -->
  <path d="M50 28 C44 36 42 52 50 62 C58 52 56 36 50 28Z" fill="white"/>
  <!-- Left outer petal -->
  <path d="M50 36 C40 32 32 40 34 54 C38 50 44 46 50 46" fill="white" opacity="0.9"/>
  <!-- Right outer petal -->
  <path d="M50 36 C60 32 68 40 66 54 C62 50 56 46 50 46" fill="white" opacity="0.9"/>
  <!-- Left inner petal -->
  <path d="M50 32 C44 34 40 44 42 56 C44 50 47 44 50 42" fill="white" opacity="0.75"/>
  <!-- Right inner petal -->
  <path d="M50 32 C56 34 60 44 58 56 C56 50 53 44 50 42" fill="white" opacity="0.75"/>
</svg>
