<?xml version="1.0" encoding="UTF-8"?>
<svg id="_레이어_1" xmlns="http://www.w3.org/2000/svg" width="511.99" height="511.99" version="1.1" viewBox="0 0 511.99 511.99">
  <!-- Generator: Adobe Illustrator 30.1.0, SVG Export Plug-In . SVG Version: 2.1.1 Build 136)  -->
  <defs>
    <style>
      .st0 {
        fill: #228f18;
      }

      .st1 {
        fill: #e62310;
      }
    </style>
  </defs>
  <path class="st0" d="M489.5,245.82c-.4-.89-.76-1.8-1.12-2.72-2.94-7.37-9.06-15.04-14.71-20.54-8.35-8.13-20.56-6.7-26.66,2.08-2.85,4.11-5.59,8.63-9.52,11.57-10.47,7.84-23.06,8.4-36.5,5.66-6.61-1.35-13.38-1.72-20.06-2.06-2.87-.15-5.7.89-9.12,1.49,1.96-3.43,3.79-6.85,5.81-10.11.93-1.51,1.84-3.04,2.72-4.58.94.63,1.91,1.22,2.86,1.84-1.16-4-.79-8.51,1.12-12.19-2.17.17-4.37.11-6.55-.17-.76,1.52-1.75,2.95-2.89,4.18-.55.6-1.21,1.14-1.92,1.63.31.2.61.4.93.59.15.08.28.18.41.26-1.04,2.18-2.08,4.36-3.19,6.49-4.3,8.38-9.2,16.44-13.75,24.47-.08,0-.05,0-.13-.01-1.29-2.4-3.15-4.7-5.51-6.43-4.08-3.3-8.85-4.75-14.27-4.08-6.31.79-12.83,2.31-18.21,5.19-12.52,6.69-24.08,5.92-36.19-3.86-2.59-2.09-5.19-4.23-7.54-6.59-6.06-6.06-13.04-7.35-19.94-4.4,0,0-.02,0-.02.01,0,0-.02,0-.02-.01-6.91-2.96-13.89-1.66-19.94,4.4-2.34,2.35-4.95,4.48-7.54,6.59-12.1,9.78-23.67,10.55-36.19,3.86-5.38-2.88-11.91-4.41-18.21-5.19-5.42-.67-10.21.78-14.28,4.08-2.35,1.73-4.21,4.03-5.51,6.43-.08,0-.05,0-.13.01-4.54-8.03-9.44-16.09-13.75-24.47-1.98-3.86-3.82-7.8-5.62-11.75.03.02.06.04.08.06-.72-.9-1.27-1.9-1.67-2.99-1.29-.04-2.6-.23-3.59-.34-.45-.05-.87-.12-1.3-.2-.09,1.03-.08,2.09-.07,3.17.74,1.43,1.16,2.95,1.23,4.55.26,1.14.31,2.29.21,3.43.09-.26.19-.51.27-.77,1.24,2.28,2.56,4.53,3.93,6.75,2.02,3.28,3.84,6.68,5.81,10.11-3.41-.6-6.24-1.64-9.12-1.49-6.68.34-13.45.72-20.06,2.06-13.44,2.74-26.02,2.18-36.5-5.66-3.93-2.95-6.67-7.47-9.52-11.57-6.11-8.78-18.32-10.22-26.66-2.08-5.64,5.5-11.78,13.16-14.72,20.54-.36.91-.72,1.83-1.12,2.72-.24.52-.39,1.03-.35,1.59.2,2.77,2.78-1.12,3.25-1.74,2.16-2.83,4.14-5.87,6.55-8.48,5.66-6.13,13.23-5.44,16.64,1.41,1.67,3.37,3.4,6.72,5.27,9.98,6.86,11.98,18.04,22.68,33.57,21.11,6.22-.63,12.27-3.1,17.83-6.32,10.19-5.89,21.32-13.04,33.04-10.71,5.1,1.02,7.63,5.07,9.15,9.93.55,1.75,1.04,3.52,1.49,5.29.45,1.96.86,3.92,1.31,5.9,2.68,11.72,3.69,30.47-2.53,42.2-3.39,6.41-16.71,12.73-23.17,14.25-2.15.51-4.44.23-6.45-.31-4.41-1.17-8.14-4.21-11.25-7.31-3.47-3.46-6.36-7.47-9.25-11.42-4.96-6.76-9.76-12.95-18.44-15.07-7.97-1.95-17.27-.54-24.58,4.44-8.71,5.93-12.91,14.52-15.97,23.53-.76,2.21-6.24,24-2.19,23.12,2.13-.47,2.44-6.3,2.89-7.78,1.09-3.51,2.28-7.01,3.94-10.34,3.8-7.62,14.54-12.14,21.94-9.33,6.03,2.29,8.79,7.61,11.69,13.14,5,9.56,11,16.65,21.1,21.15,6,2.68,12.77,4.01,19.64,3.13,6.27-.8,12.07-3.82,17.14-7.84,2.55-2.02,4.93-4.27,7.1-6.69,1.23-1.36,2.4-2.78,3.48-4.25.61-.82,1.66-2.84,2.59-3.23.53.38.71,1.61,1,2.21,2.67,5.52,8.93,7.56,14.63,8,1.1.08,2.19.27,3.28.46,12.1,2.09,15.46,11.28,10.67,22.71-2.79,6.66-6.17,13.29-6.77,20.41-1.4,16.77,15.9,27.06,29.54,31.29,6,1.87,12.39,2.6,18.9,1.95,11.2-1.12,22.19-5.67,32.44-10.85,1.09-.55,2.16-1.15,3.19-1.81.44-.28,1.12-.66,1.63-1.13.51.47,1.19.85,1.63,1.13,1.04.66,2.11,1.27,3.19,1.81,10.26,5.18,21.24,9.73,32.44,10.85,6.5.65,12.89-.09,18.9-1.95,13.65-4.23,30.94-14.52,29.54-31.29-.59-7.11-3.97-13.75-6.77-20.41-4.8-11.43-1.43-20.62,10.67-22.71,1.08-.19,2.17-.37,3.28-.46,5.7-.44,11.97-2.48,14.63-8,.29-.6.47-1.83,1-2.21.93.38,1.98,2.41,2.59,3.23,1.09,1.47,2.25,2.89,3.48,4.25,2.19,2.41,4.56,4.67,7.1,6.69,5.07,4.02,10.88,7.04,17.15,7.84,6.88.88,13.64-.46,19.64-3.13,10.09-4.5,16.11-11.58,21.1-21.15,2.89-5.53,5.66-10.86,11.69-13.14,7.39-2.81,18.14,1.71,21.94,9.33,1.66,3.34,2.85,6.83,3.94,10.34.46,1.48.78,7.31,2.89,7.78,4.06.88-1.44-20.91-2.19-23.12-3.07-9.01-7.26-17.6-15.97-23.53-7.31-4.98-16.6-6.39-24.58-4.44-8.68,2.12-13.47,8.31-18.44,15.07-2.89,3.95-5.78,7.95-9.25,11.42-3.11,3.09-6.85,6.14-11.25,7.31-2.01.54-4.3.82-6.45.31-6.46-1.52-19.78-7.84-23.17-14.25-6.22-11.74-5.2-30.48-2.53-42.2.45-1.98.86-3.94,1.32-5.9.46-1.77.94-3.54,1.49-5.29,1.52-4.84,4.04-8.91,9.15-9.93,11.72-2.32,22.86,4.82,33.04,10.71,5.55,3.22,11.6,5.68,17.83,6.32,15.53,1.58,26.72-9.12,33.57-21.11,1.87-3.26,3.6-6.61,5.27-9.98,3.39-6.86,10.97-7.54,16.64-1.41,2.42,2.62,4.4,5.65,6.55,8.48.47.61,3.05,4.51,3.25,1.74.04-.56-.11-1.06-.35-1.59l.05.02ZM357.01,320.75c-.58,1.96-2.13,3.24-3.98,3.95-8.4,3.26-17.94-1.78-26.48-3.92-8.2-2.05-18.21-1.27-24.26,4.17-7.79,6.99-7.47,18.04-4.38,28.04.66,2.14,1.34,4.27,2.36,6.31,1.09,2.15,2.41,4.18,3.55,6.31,3.89,7.27,4.98,15.52,2.43,22.82-3.66,10.49-13.77,16.81-24.74,18.27-5.27.71-10.7.02-16.08-.37-2.23-.17-4.39-.39-6.61-.67-.81-.1-2.38-.1-3.26.45-.88-.55-2.45-.55-3.26-.45-2.22.28-4.38.51-6.61.67-5.37.39-10.81,1.08-16.08.37-10.96-1.46-21.07-7.79-24.74-18.27-2.55-7.31-1.46-15.56,2.43-22.82,1.14-2.13,2.46-4.16,3.55-6.31,1.03-2.02,1.71-4.17,2.36-6.31,3.08-10.01,3.4-21.05-4.38-28.04-6.05-5.42-16.05-6.22-24.26-4.17-8.54,2.14-18.08,7.17-26.48,3.92-1.86-.72-3.4-1.99-3.98-3.95-1.51-5.06,2.2-13.41,3.07-18.7,1.17-7.15,1.65-14.35.83-21.38-.54-4.69-2.67-10.96.27-15.54,1.85-2.87,5.32-4.87,8.59-5.1,3.86-.27,6.88,1.97,9.89,3.79,2.32,1.39,4.65,2.76,6.93,4.2,5.22,3.29,10.45,6.63,16.21,9.03,5.25,2.19,11.2,3.71,17.19,2.33,13.84-3.19,22.43-18.82,30.15-29.45,2.11-2.9,5.04-5.16,8.32-6.17,3.29,1.01,6.21,3.27,8.32,6.17,7.72,10.63,16.31,26.26,30.15,29.45,5.98,1.38,11.94-.13,17.19-2.33,5.76-2.41,10.99-5.75,16.21-9.03,2.29-1.44,4.62-2.81,6.93-4.2,3.02-1.8,6.04-4.04,9.89-3.79,3.27.23,6.74,2.22,8.59,5.1,2.94,4.58.81,10.85.27,15.54-.82,7.02-.34,14.23.83,21.38.87,5.29,4.58,13.64,3.07,18.7h-.02Z"/>
  <path class="st1" d="M158.78,158.54c8.23-7.62,16.39-12.68,21.29-20.72,3.59-5.86,7.44-11.97,2.88-18.6-4.71-6.85-11.94-4.88-18.71-3.43-13.9,2.98-24.19,12.3-35.93,22-1.96-12.52-3.4-23.31-9.76-32.38-4.47-6.37-9.44-12.66-18.83-10.13-8.61,2.31-9.88,9.9-11.56,17.04-2.68,11.37,1.89,22.03,3.46,34.51-11.14-4.44-20.36-9.04-31.05-7.87-5.05.55-10.96,3.01-12.5,7.63-.84,2.53-.05,5.2,1.24,7.53,2.34,4.22,6.25,7.55,9.85,10.95,3.72,3.52,7.55,7.17,12.84,8.75.35.1.72.23,1.09.26-8.7,5.77-18.2,10.34-23.78,18.95-2.78,4.29-4.47,9.69-1.86,14.47,2.85,5.2,9.34,6.74,15.33,6.99,11.42.47,20.72-5.15,29.99-12.29,1.9,14-6.1,32.59,15.83,36.16,11.55,1.89,16.66-4.51,19.57-13.17l4.81-6.94c8.72,6.75,17.12,12.27,27.66,6.66,11.79-6.28,5.78-17.12,4.76-26.27,24.26.05,35.18-4.8,36.42-15.72,1.49-13.17-10.64-20.28-43.07-24.39v.02Z"/>
  <path class="st1" d="M475.75,164.75c-5.76-4.54-12.23-4.57-19.03-2.5-2.08.63-2.63.36-2.86-1.91-.85-8.53-9.04-14.27-17.66-10.3-1.72.8-3.85,2.41-5.18,1.96-2.07-.68-.24-3.26-.39-4.99-.38-4.25-2.12-7.22-5.44-9.84-5.43-4.28-10.95-4.64-17.22-1.52-1.76.87-4.1,2.3-5.47,1.76-1.91-.74-.54-3.57-.76-5.46-.58-5.15-.77-10.49-3.56-14.85-2.24-3.52-5.72-5.86-10-6.25-1.79-.17-3.47,1.36-5,2.58-5.53,4.43-9.21,10.41-13.24,16.1-.68.96-1.34,1.95-2.01,2.91-5.69,7.79-10.8,15.91-14.76,24.74-4.23,9.42-5.14,18.93-3.18,28.7,1.4,7,3.22,13.87,6.95,19.85,4.19,6.72,8.39,13.4,15.6,17.51.15.08.28.18.41.26l6.04,3.85c3.42,2.29,6.88,4.55,10.79,6.02.9.33,1.79.71,2.69,1.08,1.77.76,3.6,1.38,5.49,1.79l7.31,1.62c6.34,1.4,13.01.93,18.91-1.77.04-.02.08-.03.11-.05,1.8-1.22,3.63-2.4,5.53-3.44,2-1.1,3.86-2.45,5.56-3.96.92-.83,1.84-1.69,2.73-2.6,8.59-8.79,15.95-18.63,23.1-28.62,4.7-6.56,10.09-12.59,14.65-19.25,1.39-2.03,2.13-4.18,2.52-6.46.5-2.84-.28-5.11-2.62-6.96v.03ZM398.57,181.42c1.18-1.85,2.64-2.78,4.34-2.78.79,0,1.62.21,2.72.77,2.39,1.88,2.89,4.38,1.33,6.53-1.31,1.8-3.13,2.85-5,2.85-.91,0-1.8-.25-2.64-.74-.93-.55-1.56-1.36-1.79-2.33-.38-1.62.35-3.23,1.04-4.29h.02ZM384.66,173.25c1.07-1.68,2.53-2.61,4.11-2.61.82,0,1.62.25,2.39.73.74.47,1.27,1.17,1.67,1.94h0c.22.41.46.82.55,1.29.26,1.23.03,2.47-.65,3.47-.83,1.22-2.22,1.9-3.93,1.9-.5,0-1-.05-1.49-.16-.48-.09-1.19-.24-1.73-.87-1.72-2.03-2.02-3.94-.91-5.69h.01ZM415.73,199.12c-5.79,9.75-18.49,13.96-29.27,10.52-1.81-.58-3.59-1.36-5.26-2.39-.19-.11-.34-.26-.53-.37-11.51-7.38-16.19-18.91-12.67-31.98.71-2.62,1.63-6.37,5.2-5.44,3.97,1.03,1.24,4.22.75,6.46-2.52,11.37,1.04,21.07,9.96,25.79.09.05.17.11.26.17.97.5,1.95.93,2.94,1.33,8.33,3.35,16.89,2.74,22.78-8.01,1.25-2.28,2.82-1.88,4.69-.72,1.98,1.23,2.42,2.53,1.17,4.65h0Z"/>
  <path d="M130.17,166.9c.5-1.32,1.52-2.4,2.79-2.95.63-.27,1.27-.41,1.9-.41,1.87,0,3.47,1.23,4.41,3.38.76,1.74.24,3.62-1.56,5.37-.12.13-.3.31-.54.48-.43.28-.85.33-1.18.37-.3.04-.6.06-.91.06-2.23,0-4.03-1-4.81-2.67-.53-1.13-.57-2.43-.1-3.65h.01Z"/>
  <path d="M117.64,169.11c.65-.2,1.28-.29,1.87-.29h0c2.09,0,3.69,1.21,4.75,3.6.53,1.2,1.03,2.98.37,4.55-.39.95-1.15,1.67-2.2,2.07-.66.26-1.34.38-2,.38-2.21,0-4.25-1.41-5.44-3.79-1.24-2.45-.31-4.92,2.68-6.55l-.02.02Z"/>
  <path d="M136.86,202.28c-3.43,1.33-7.06,1.81-10.62,1.61-1.67-.1-3.32-.35-4.93-.75-8.17-2.03-15.36-7.78-18.29-15.8-.88-2.41-.18-3.65,2.08-4.54,2.13-.84,3.82-.95,4.67,1.63,4.46,13.58,14.76,14.83,25.09,11.76,10.25-3.04,15.85-12.4,15.43-24.66-.08-2.4-2.27-6.19,2-6.48,3.83-.26,4.07,3.75,4.28,6.58,1.12,14.31-6.09,25.39-19.73,30.67h.01Z"/>
  <path d="M130.17,166.9c.5-1.32,1.52-2.4,2.79-2.95.63-.27,1.27-.41,1.9-.41,1.87,0,3.47,1.23,4.41,3.38.76,1.74.24,3.62-1.56,5.37-.12.13-.3.31-.54.48-.43.28-.85.33-1.18.37-.3.04-.6.06-.91.06-2.23,0-4.03-1-4.81-2.67-.53-1.13-.57-2.43-.1-3.65h.01Z"/>
  <path d="M117.64,169.11c.65-.2,1.28-.29,1.87-.29h0c2.09,0,3.69,1.21,4.75,3.6.53,1.2,1.03,2.98.37,4.55-.39.95-1.15,1.67-2.2,2.07-.66.26-1.34.38-2,.38-2.21,0-4.25-1.41-5.44-3.79-1.24-2.45-.31-4.92,2.68-6.55l-.02.02Z"/>
  <path d="M136.86,202.28c-3.43,1.33-7.06,1.81-10.62,1.61-1.67-.1-3.32-.35-4.93-.75-8.17-2.03-15.36-7.78-18.29-15.8-.88-2.41-.18-3.65,2.08-4.54,2.13-.84,3.82-.95,4.67,1.63,4.46,13.58,14.76,14.83,25.09,11.76,10.25-3.04,15.85-12.4,15.43-24.66-.08-2.4-2.27-6.19,2-6.48,3.83-.26,4.07,3.75,4.28,6.58,1.12,14.31-6.09,25.39-19.73,30.67h.01Z"/>
  <path d="M398.57,181.42c1.18-1.85,2.64-2.78,4.34-2.78.79,0,1.62.21,2.72.77,2.39,1.88,2.89,4.38,1.33,6.53-1.31,1.8-3.13,2.85-5,2.85-.91,0-1.8-.25-2.64-.74-.93-.55-1.56-1.36-1.79-2.33-.38-1.62.35-3.23,1.04-4.29h.02Z"/>
  <path d="M384.66,173.25c1.07-1.68,2.53-2.61,4.11-2.61.82,0,1.62.25,2.39.73.74.47,1.27,1.17,1.67,1.94h0c.22.41.46.82.55,1.29.26,1.23.03,2.47-.65,3.47-.83,1.22-2.22,1.9-3.93,1.9-.5,0-1-.05-1.49-.16-.48-.09-1.19-.24-1.73-.87-1.72-2.03-2.02-3.94-.91-5.69h.01Z"/>
  <path d="M415.73,199.12c-5.79,9.75-18.49,13.96-29.27,10.52-1.81-.58-3.59-1.36-5.26-2.39-.19-.11-.34-.26-.53-.37-11.51-7.38-16.19-18.91-12.67-31.98.71-2.62,1.63-6.37,5.2-5.44,3.97,1.03,1.24,4.22.75,6.46-2.52,11.37,1.04,21.07,9.96,25.79.09.05.17.11.26.17.97.5,1.95.93,2.94,1.33,8.33,3.35,16.89,2.74,22.78-8.01,1.25-2.28,2.82-1.88,4.69-.72,1.98,1.23,2.42,2.53,1.17,4.65h0Z"/>
  <metadata>
    <sfw xmlns="http://ns.adobe.com/SaveForWeb/1.0/">
      <slices/>
      <sliceSourceBounds x="21.2" y="89.61" width="468.61" height="327.68" bottomLeftOrigin="true"/>
    </sfw>
  </metadata>
</svg>